<mxfile host="app.diagrams.net" agent="Mozilla/5.0 (Macintosh; Intel Mac OS X 10_15_7) AppleWebKit/537.36 (KHTML, like Gecko) Chrome/131.0.0.0 Safari/537.36 Edg/131.0.0.0" version="26.0.5">
  <diagram id="6a731a19-8d31-9384-78a2-239565b7b9f0" name="Page-1">
    <mxGraphModel dx="1979" dy="1071" grid="1" gridSize="10" guides="1" tooltips="1" connect="1" arrows="1" fold="1" page="1" pageScale="1" pageWidth="1169" pageHeight="827" background="none" math="0" shadow="0">
      <root>
        <mxCell id="0" />
        <mxCell id="1" parent="0" />
        <mxCell id="2" value="开始" style="shape=mxgraph.flowchart.terminator;strokeWidth=2;gradientColor=none;gradientDirection=north;fontStyle=0;html=1;" parent="1" vertex="1">
          <mxGeometry x="260" y="60" width="120" height="30" as="geometry" />
        </mxCell>
        <mxCell id="7" style="fontStyle=1;strokeColor=#003366;strokeWidth=1;html=1;entryX=0.5;entryY=0;entryDx=0;entryDy=0;" parent="1" source="2" target="wHxs4oyfYH_jLCG5n1om-55" edge="1">
          <mxGeometry relative="1" as="geometry">
            <mxPoint x="320.8684210526317" y="130" as="targetPoint" />
          </mxGeometry>
        </mxCell>
        <mxCell id="45" value="" style="edgeStyle=elbowEdgeStyle;elbow=horizontal;exitX=1;exitY=0.5;exitPerimeter=0;entryX=0.905;entryY=0.5;entryPerimeter=0;fontStyle=1;strokeColor=#003366;strokeWidth=1;html=1;" parent="1" target="34" edge="1">
          <mxGeometry width="100" height="100" as="geometry">
            <mxPoint x="380.5" y="1119.25" as="sourcePoint" />
            <mxPoint x="100" as="targetPoint" />
            <Array as="points">
              <mxPoint x="950" y="1320" />
            </Array>
          </mxGeometry>
        </mxCell>
        <mxCell id="54" value="" style="edgeStyle=elbowEdgeStyle;elbow=horizontal;fontStyle=1;strokeColor=#003366;strokeWidth=1;html=1;entryX=0;entryY=0.5;entryDx=0;entryDy=0;exitX=0;exitY=0.5;exitDx=0;exitDy=0;exitPerimeter=0;" parent="1" source="wHxs4oyfYH_jLCG5n1om-70" target="wHxs4oyfYH_jLCG5n1om-55" edge="1">
          <mxGeometry width="100" height="100" as="geometry">
            <mxPoint x="220" y="820" as="sourcePoint" />
            <mxPoint x="210" y="290" as="targetPoint" />
            <Array as="points">
              <mxPoint x="120" y="970" />
            </Array>
          </mxGeometry>
        </mxCell>
        <mxCell id="wHxs4oyfYH_jLCG5n1om-58" style="edgeStyle=orthogonalEdgeStyle;rounded=0;orthogonalLoop=1;jettySize=auto;html=1;entryX=0.5;entryY=0;entryDx=0;entryDy=0;fontFamily=Helvetica;fontSize=12;fontColor=default;fontStyle=0;" edge="1" parent="1" source="wHxs4oyfYH_jLCG5n1om-55" target="wHxs4oyfYH_jLCG5n1om-56">
          <mxGeometry relative="1" as="geometry" />
        </mxCell>
        <mxCell id="wHxs4oyfYH_jLCG5n1om-55" value="通过开始时间向指定RUL发起请求" style="rounded=0;whiteSpace=wrap;html=1;strokeColor=default;strokeWidth=2;align=center;verticalAlign=middle;fontFamily=Helvetica;fontSize=12;fontColor=default;fontStyle=0;fillColor=default;gradientColor=none;gradientDirection=north;aspect=fixed;" vertex="1" parent="1">
          <mxGeometry x="249.58" y="130" width="141.33" height="80" as="geometry" />
        </mxCell>
        <mxCell id="wHxs4oyfYH_jLCG5n1om-63" value="" style="edgeStyle=orthogonalEdgeStyle;rounded=0;orthogonalLoop=1;jettySize=auto;html=1;fontFamily=Helvetica;fontSize=12;fontColor=default;fontStyle=0;entryX=0.5;entryY=0;entryDx=0;entryDy=0;" edge="1" parent="1" source="wHxs4oyfYH_jLCG5n1om-56" target="wHxs4oyfYH_jLCG5n1om-64">
          <mxGeometry relative="1" as="geometry">
            <mxPoint x="321" y="420" as="targetPoint" />
          </mxGeometry>
        </mxCell>
        <mxCell id="wHxs4oyfYH_jLCG5n1om-56" value="返回指定URL的response对象" style="rounded=0;whiteSpace=wrap;html=1;strokeColor=default;strokeWidth=2;align=center;verticalAlign=middle;fontFamily=Helvetica;fontSize=12;fontColor=default;fontStyle=0;fillColor=default;gradientColor=none;gradientDirection=north;aspect=fixed;" vertex="1" parent="1">
          <mxGeometry x="249.33999999999997" y="260" width="141.33" height="80" as="geometry" />
        </mxCell>
        <mxCell id="wHxs4oyfYH_jLCG5n1om-67" style="edgeStyle=orthogonalEdgeStyle;rounded=0;orthogonalLoop=1;jettySize=auto;html=1;entryX=0.5;entryY=0;entryDx=0;entryDy=0;fontFamily=Helvetica;fontSize=12;fontColor=default;fontStyle=0;" edge="1" parent="1" source="wHxs4oyfYH_jLCG5n1om-64" target="wHxs4oyfYH_jLCG5n1om-66">
          <mxGeometry relative="1" as="geometry" />
        </mxCell>
        <mxCell id="wHxs4oyfYH_jLCG5n1om-64" value="解析response对象，并进行数据处理获取新闻信息" style="rounded=0;whiteSpace=wrap;html=1;strokeColor=default;strokeWidth=2;align=center;verticalAlign=middle;fontFamily=Helvetica;fontSize=12;fontColor=default;fontStyle=0;fillColor=default;gradientColor=none;gradientDirection=north;aspect=fixed;" vertex="1" parent="1">
          <mxGeometry x="249.32999999999996" y="390" width="141.33" height="80" as="geometry" />
        </mxCell>
        <mxCell id="wHxs4oyfYH_jLCG5n1om-72" style="edgeStyle=orthogonalEdgeStyle;rounded=0;orthogonalLoop=1;jettySize=auto;html=1;entryX=0.5;entryY=0;entryDx=0;entryDy=0;fontFamily=Helvetica;fontSize=12;fontColor=default;fontStyle=0;" edge="1" parent="1" source="wHxs4oyfYH_jLCG5n1om-66" target="wHxs4oyfYH_jLCG5n1om-71">
          <mxGeometry relative="1" as="geometry" />
        </mxCell>
        <mxCell id="wHxs4oyfYH_jLCG5n1om-66" value="解析response对象，并进行数据处理获取指定格式的新闻信息" style="rounded=0;whiteSpace=wrap;html=1;strokeColor=default;strokeWidth=2;align=center;verticalAlign=middle;fontFamily=Helvetica;fontSize=12;fontColor=default;fontStyle=0;fillColor=default;gradientColor=none;gradientDirection=north;aspect=fixed;" vertex="1" parent="1">
          <mxGeometry x="249.57999999999993" y="520" width="141.33" height="80" as="geometry" />
        </mxCell>
        <mxCell id="wHxs4oyfYH_jLCG5n1om-68" value="结束" style="shape=mxgraph.flowchart.terminator;strokeWidth=2;gradientColor=none;gradientDirection=north;fontStyle=0;html=1;" vertex="1" parent="1">
          <mxGeometry x="259.99" y="930" width="120" height="30" as="geometry" />
        </mxCell>
        <mxCell id="wHxs4oyfYH_jLCG5n1om-69" value="" style="edgeStyle=elbowEdgeStyle;elbow=vertical;exitX=0.5;exitY=1;exitPerimeter=0;entryX=0.5;entryY=0;entryPerimeter=0;fontStyle=1;strokeColor=#003366;strokeWidth=1;html=1;exitDx=0;exitDy=0;" edge="1" parent="1" target="wHxs4oyfYH_jLCG5n1om-68" source="wHxs4oyfYH_jLCG5n1om-70">
          <mxGeometry width="100" height="100" as="geometry">
            <mxPoint x="319.99" y="1080" as="sourcePoint" />
            <mxPoint x="99.99" y="-730" as="targetPoint" />
          </mxGeometry>
        </mxCell>
        <mxCell id="wHxs4oyfYH_jLCG5n1om-70" value="是否爬取完毕" style="strokeWidth=2;html=1;shape=mxgraph.flowchart.decision;whiteSpace=wrap;strokeColor=default;align=center;verticalAlign=middle;fontFamily=Helvetica;fontSize=12;fontColor=default;fontStyle=0;fillColor=default;gradientColor=none;gradientDirection=north;" vertex="1" parent="1">
          <mxGeometry x="220.27" y="810" width="199.43" height="60" as="geometry" />
        </mxCell>
        <mxCell id="wHxs4oyfYH_jLCG5n1om-71" value="存储到Sqlite数据库" style="rounded=0;whiteSpace=wrap;html=1;strokeColor=default;strokeWidth=2;align=center;verticalAlign=middle;fontFamily=Helvetica;fontSize=12;fontColor=default;fontStyle=0;fillColor=default;gradientColor=none;gradientDirection=north;aspect=fixed;" vertex="1" parent="1">
          <mxGeometry x="249.57999999999993" y="660" width="141.33" height="80" as="geometry" />
        </mxCell>
        <mxCell id="wHxs4oyfYH_jLCG5n1om-73" style="edgeStyle=orthogonalEdgeStyle;rounded=0;orthogonalLoop=1;jettySize=auto;html=1;entryX=0.5;entryY=0;entryDx=0;entryDy=0;entryPerimeter=0;fontFamily=Helvetica;fontSize=12;fontColor=default;fontStyle=0;" edge="1" parent="1" source="wHxs4oyfYH_jLCG5n1om-71" target="wHxs4oyfYH_jLCG5n1om-70">
          <mxGeometry relative="1" as="geometry" />
        </mxCell>
      </root>
    </mxGraphModel>
  </diagram>
</mxfile>
